<svg width="26" height="26" viewBox="0 0 26 26" fill="none" xmlns="http://www.w3.org/2000/svg">
<path d="M22.7201 8.14458C22.7201 12.947 18.4656 13.6929 18.4656 18.1687C18.4656 20.4793 15.8082 20.674 13.7856 20.674C12.0387 20.674 8.18149 20.0929 8.18149 18.1672C8.18149 13.6936 4.00012 12.9478 4.00012 8.14458C4.00012 3.64641 8.49718 0 13.4307 0C18.366 0 22.7201 3.64641 22.7201 8.14458Z" fill="#FFD983"/>
<path d="M16.9061 24.1354C16.9061 24.7529 15.0051 26 13.3603 26C11.7155 26 9.81458 24.7529 9.81458 24.1354C9.81458 23.5178 11.7147 23.7625 13.3603 23.7625C15.0051 23.7625 16.9061 23.5178 16.9061 24.1354Z" fill="#CCD6DD"/>
<path d="M17.3657 7.57248C17.033 7.28085 16.4952 7.28085 16.1625 7.57248L13.3604 10.0285L10.5584 7.57248C10.2257 7.28085 9.6879 7.28085 9.3552 7.57248C9.02249 7.8641 9.02249 8.33547 9.3552 8.6271L12.5095 11.3919V19.2874C12.5095 19.6998 12.8907 20.0332 13.3604 20.0332C13.8301 20.0332 14.2113 19.6998 14.2113 19.2874V11.3919L17.3657 8.6271C17.6984 8.33547 17.6984 7.8641 17.3657 7.57248Z" fill="#FFCC4D"/>
<path d="M18.4649 23.0165C18.4649 23.84 17.7025 24.5082 16.7631 24.5082H9.95585C9.01644 24.5082 8.25403 23.84 8.25403 23.0165V18.5415H18.4649V23.0165Z" fill="#99AAB5"/>
<path d="M8.25339 23.7624C7.84496 23.7624 7.48417 23.5036 7.41525 23.1389C7.33781 22.7331 7.65095 22.3483 8.11469 22.2812L18.3256 20.7895C18.7885 20.7164 19.2276 20.9961 19.3041 21.4026C19.3816 21.8083 19.0684 22.1931 18.6047 22.2603L8.39379 23.752C8.34699 23.7594 8.29934 23.7624 8.25339 23.7624ZM8.25339 20.779C7.84496 20.779 7.48417 20.5202 7.41525 20.1555C7.33781 19.7498 7.65095 19.3649 8.11469 19.2978L18.3256 17.8061C18.7885 17.7338 19.2276 18.0127 19.3041 18.4192C19.3816 18.8249 19.0684 19.2098 18.6047 19.2769L8.39379 20.7686C8.34699 20.776 8.29934 20.779 8.25339 20.779Z" fill="#CCD6DD"/>
</svg>
