<svg width="26" height="26" viewBox="0 0 26 26" fill="none" xmlns="http://www.w3.org/2000/svg">
<path d="M22.1657 24H4.44348C6.88793 24 6.27681 18.5 6.27681 18.5C6.27681 17.1501 7.37132 9.33337 8.72126 9.33337H21.5546C21.5546 9.33337 23.999 9.33337 23.999 11.7778V22.1667C23.999 22.1667 23.999 24 22.1657 24Z" fill="#99AAB5"/>
<path d="M20.3335 22.1667C20.3335 24 22.1668 24 22.1668 24H3.83346C3.83346 24 2.00012 24 2.00012 21.5556V4.44444C2.00012 3.0945 3.09462 2 4.44457 2H17.889C19.239 2 20.3335 3.0945 20.3335 4.44444V22.1667Z" fill="#CCD6DD"/>
<path d="M18.5008 14.2223C18.5008 14.5602 18.2276 14.8334 17.8897 14.8334H13.0008C12.6634 14.8334 12.3897 14.5602 12.3897 14.2223C12.3897 13.8843 12.6634 13.6112 13.0008 13.6112H17.8897C18.2276 13.6112 18.5008 13.8843 18.5008 14.2223ZM18.5008 11.7778C18.5008 12.1158 18.2276 12.3889 17.8897 12.3889H13.0008C12.6634 12.3889 12.3897 12.1158 12.3897 11.7778C12.3897 11.4399 12.6634 11.1667 13.0008 11.1667H17.8897C18.2276 11.1667 18.5008 11.4399 18.5008 11.7778ZM18.5008 9.33337C18.5008 9.67132 18.2276 9.94449 17.8897 9.94449H13.0008C12.6634 9.94449 12.3897 9.67132 12.3897 9.33337C12.3897 8.99543 12.6634 8.72226 13.0008 8.72226H17.8897C18.2276 8.72226 18.5008 8.99543 18.5008 9.33337ZM18.5008 16.6667C18.5008 17.0047 18.2276 17.2778 17.8897 17.2778H4.44522C4.10788 17.2778 3.83411 17.0047 3.83411 16.6667C3.83411 16.3288 4.10788 16.0556 4.44522 16.0556H17.8897C18.2276 16.0556 18.5008 16.3288 18.5008 16.6667ZM18.5008 19.1112C18.5008 19.4491 18.2276 19.7223 17.8897 19.7223H4.44522C4.10788 19.7223 3.83411 19.4491 3.83411 19.1112C3.83411 18.7732 4.10788 18.5 4.44522 18.5H17.8897C18.2276 18.5 18.5008 18.7732 18.5008 19.1112ZM18.5008 21.5556C18.5008 21.8935 18.2276 22.1667 17.8897 22.1667H4.44522C4.10788 22.1667 3.83411 21.8935 3.83411 21.5556C3.83411 21.2177 4.10788 20.9445 4.44522 20.9445H17.8897C18.2276 20.9445 18.5008 21.2177 18.5008 21.5556ZM17.2786 7.50004C17.2786 7.50004 18.5008 7.50004 18.5008 6.27782V5.0556C18.5008 5.0556 18.5008 3.83337 17.2786 3.83337H5.05633C5.05633 3.83337 3.83411 3.83337 3.83411 5.0556V6.27782C3.83411 6.27782 3.83411 7.50004 5.05633 7.50004H17.2786Z" fill="#99AAB5"/>
<path d="M9.94522 14.8333C9.94522 14.8333 11.1674 14.8333 11.1674 13.6111V9.94439C11.1674 9.94439 11.1674 8.72217 9.94522 8.72217H5.05633C5.05633 8.72217 3.83411 8.72217 3.83411 9.94439V13.6111C3.83411 13.6111 3.83411 14.8333 5.05633 14.8333H9.94522Z" fill="#55ACEE"/>
</svg>
