<svg width="26" height="26" viewBox="0 0 26 26" fill="none" xmlns="http://www.w3.org/2000/svg">
<path d="M2.10209 19.007L4.59866 21.5072L3.92723 22.1789L1.43066 19.6794L2.10209 19.007Z" fill="#77B255"/>
<path d="M4.53398 21.441L7.02982 23.9412L6.35839 24.6137L3.86328 22.1134L4.53398 21.441Z" fill="#FFD983"/>
<path d="M4.46928 17.5435L6.96584 20.0437L6.29442 20.7161L3.79785 18.2159L4.46928 17.5435Z" fill="#FFAC33"/>
<path d="M6.45195 19.5286L8.94851 22.0289L8.27709 22.7013L5.78125 20.201L6.45195 19.5286ZM9.2955 12.7104L11.7913 15.2107L11.1199 15.8831L8.62408 13.3829L9.2955 12.7104Z" fill="#EA596E"/>
<path d="M11.2769 14.6963L13.7735 17.1958L13.102 17.8682L10.6055 15.3687L11.2769 14.6963Z" fill="#FFAC33"/>
<path d="M10.7957 10.3602L13.2923 12.8605L12.6216 13.5329L10.125 11.0326L10.7957 10.3602Z" fill="#77B255"/>
<path d="M13.2017 12.7687L15.6983 15.2689L15.0268 15.9414L12.5303 13.4411L13.2017 12.7687Z" fill="#FFD983"/>
<path d="M12.7203 8.43262L15.2168 10.9329L14.5454 11.6046L12.0488 9.10504L12.7203 8.43262Z" fill="#FFAC33"/>
<path d="M15.1258 10.8417L17.6223 13.3413L16.9509 14.0137L14.4551 11.5134L15.1258 10.8417ZM17.6456 3.49976L20.1422 6.00002L19.4708 6.67171L16.9742 4.17218L17.6456 3.49976Z" fill="#EA596E"/>
<path d="M20.0523 5.90894L22.5489 8.40847L21.8774 9.08089L19.3809 6.58063L20.0523 5.90894Z" fill="#FFAC33"/>
<path d="M19.5562 1.52698L22.0528 4.02724L21.3813 4.69966L18.8848 2.1994L19.5562 1.52698Z" fill="#77B255"/>
<path d="M21.9908 3.96606L24.4873 6.4656L23.8159 7.13802L21.3193 4.63848L21.9908 3.96606Z" fill="#FFD983"/>
<path d="M18.0352 0.477907C16.202 2.31377 16.1431 4.95464 16.2922 7.62173C16.6567 7.64213 17.0211 7.66617 17.3848 7.69021C17.6685 7.70916 17.9486 7.72737 18.2279 7.74412C18.0839 5.35022 18.0832 3.1552 19.3962 1.84023C19.9251 1.32809 20.0909 0.635995 19.7214 0.262266C19.3322 -0.131132 18.5997 -0.099806 18.0352 0.477907Z" fill="#9266CC"/>
<path d="M9.46904 18.5728L9.35775 16.6349C9.33883 16.3107 9.31556 15.98 9.30392 15.6645C9.08859 15.4489 7.51005 15.4103 7.37402 15.5465C7.38348 15.8671 7.40821 16.1905 7.42567 16.5133C7.44604 16.879 7.51733 18.1706 7.53406 18.4511C7.57334 19.1141 7.60389 19.7668 7.59662 20.3861C7.78503 20.5747 9.32137 20.7044 9.52069 20.5041C9.5316 19.8688 9.50469 19.2212 9.46904 18.5728Z" fill="#3B88C3"/>
<path d="M9.52217 20.5033L7.59519 20.3853C7.57628 21.9946 7.31585 23.405 6.368 24.3543C5.99192 24.7309 5.99192 25.3407 6.368 25.7173C6.55568 25.9053 6.80228 26 7.04816 26C7.29403 26 7.54063 25.906 7.72831 25.7173C9.49089 23.9529 9.5229 20.4909 9.52217 20.5033Z" fill="#55ACEE"/>
<path d="M18.3495 9.68269C17.9851 9.66229 17.6199 9.63825 17.2562 9.61421C16.9732 9.59527 16.6924 9.57706 16.4138 9.5603C16.5578 11.9535 16.5586 14.1492 15.2448 15.4642C13.9325 16.7784 11.7437 16.7792 9.35694 16.6349C9.07615 16.6182 7.7864 16.5329 7.42487 16.5125C4.75735 16.3625 2.11675 16.4207 0.281428 18.2588C-0.0939303 18.6347 -0.0939303 19.2445 0.282155 19.6211C0.469834 19.8091 0.716435 19.9038 0.962309 19.9038C1.20818 19.9038 1.45478 19.8098 1.64246 19.6211C2.95549 18.3069 5.14508 18.3054 7.53326 18.4497C7.81332 18.4664 9.10525 18.5516 9.46824 18.572C12.1321 18.7214 14.7705 18.6631 16.6051 16.8265C18.439 14.9907 18.4987 12.3498 18.3495 9.68269Z" fill="#9266CC"/>
<path d="M18.3496 9.68275C18.3293 9.31776 18.2442 8.02391 18.2274 7.74489C18.2078 7.41706 18.1918 7.0936 18.1809 6.77451C17.9365 6.75921 16.6532 6.67762 16.251 6.65576C16.2604 6.97631 16.2743 7.29904 16.2917 7.62177C16.3121 7.98676 16.3972 9.2806 16.4139 9.56035C16.4539 10.2262 16.4801 10.8746 16.4728 11.4953C16.7151 11.5106 17.9961 11.5915 18.3969 11.6133C18.4078 10.978 18.386 10.3319 18.3496 9.68275Z" fill="#744EAA"/>
<path d="M25.7892 6.31688C25.4837 5.99925 24.7817 5.87904 24.1226 6.57405C22.8096 7.88902 20.6186 7.88975 18.2275 7.74477C17.9481 7.72802 16.6562 7.64205 16.2918 7.62165C13.6293 7.47231 10.9917 7.53205 9.15851 9.36791C7.54724 10.9816 7.30718 13.2174 7.37411 15.5457C7.77638 15.5676 9.06104 15.6492 9.304 15.6637C9.23271 13.6567 9.3862 11.8653 10.5196 10.7302C11.8326 9.41526 14.0243 9.41526 16.4147 9.55951C16.6933 9.57626 17.986 9.6615 18.3504 9.6819C21.0136 9.83124 23.6505 9.77223 25.4837 7.93637C26.1282 7.30329 26.0947 6.63451 25.7892 6.31688Z" fill="#55ACEE"/>
</svg>
