<svg width="26" height="27" viewBox="0 0 26 27" fill="none" xmlns="http://www.w3.org/2000/svg">
<path d="M11.8559 19.1162C13.3558 19.1159 14.8125 18.6137 15.994 17.6898L19.7088 21.4045L20.9037 20.2096L17.1889 16.4949C18.1134 15.3133 18.6158 13.8562 18.6162 12.3559C18.6162 8.62851 15.5834 5.5957 11.8559 5.5957C8.12851 5.5957 5.0957 8.62851 5.0957 12.3559C5.0957 16.0834 8.12851 19.1162 11.8559 19.1162ZM11.8559 7.28576C14.6521 7.28576 16.9261 9.55974 16.9261 12.3559C16.9261 15.1521 14.6521 17.4261 11.8559 17.4261C9.05974 17.4261 6.78576 15.1521 6.78576 12.3559C6.78576 9.55974 9.05974 7.28576 11.8559 7.28576Z" fill="#141414"/>
</svg>
